<svg xmlns="http://www.w3.org/2000/svg" viewBox="0 0 1024 1024">
    <path fill="white"
        d="M747.4 535.7c-.4-68.2 30.5-119.6 92.9-157.5-34.9-50-87.7-77.5-157.3-82.8-65.9-5.2-138 38.4-164.4 38.4-27.9 0-91.7-36.6-150.8-35.6-77.9 1.1-149.6 45.7-189.6 117.1-81.4 142.5-20.8 355.7 57.2 472.5 39.8 57.1 86.3 120.8 148.6 118.4 59.3-2.4 81.9-37.7 153.5-37.7 71.8 0 92.8 37.7 155.3 36.4 64.6-1.4 105.1-57.9 144.4-115.2 45.1-65.1 63.4-128.3 64.4-131.5-1.4-.6-123.7-47.4-124.9-188.5zm-155-349.4c32-38.7 53.7-92.3 47.7-145.9-46.1 1.9-101.8 30.7-134.6 69.4-29.2 33.9-54.1 88.1-47.3 139.8 51.3 4 103.7-26.4 134.2-63.3z" />
</svg>